<svg xmlns="http://www.w3.org/2000/svg" xmlns:xlink="http://www.w3.org/1999/xlink" version="1.1" width="700" height="700" viewBox="0 0 1000 1000" xml:space="preserve">
<desc>Created with Fabric.js 3.5.0</desc>
<defs>
</defs>
<g transform="matrix(1.9488 0 0 1.9488 158.5024 499.9963)" id="902111">
<g style="" vector-effect="non-scaling-stroke">
		<g transform="matrix(0.1333 0 0 -0.1333 -2.3521 -2.3521)">
<path style="stroke: none; stroke-width: 1; stroke-dasharray: none; stroke-linecap: butt; stroke-dashoffset: 0; stroke-linejoin: miter; stroke-miterlimit: 4; is-custom-font: none; font-file-url: none; fill: rgb(0,0,0); fill-rule: nonzero; opacity: 1;" transform=" translate(-592.5, -617.5)" d="M 312 897 l -282 -282 l 280 -280 l 280 -280 l 283 283 l 282 282 l -280 280 l -280 280 l -283 -283 z m 278 -279 l 0 -523 l -262 262 l -263 263 l 260 260 c 143 143 261 260 262 260 c 2 0 3 -235 3 -522 z m 120 300 l 0 -108 l -45 0 l -45 0 l 0 152 l 0 152 l 45 -44 l 45 -44 l 0 -108 z m 128 -68 l -3 -45 l -45 0 l -45 0 l -3 95 l -3 95 l 51 -50 c 48 -47 51 -53 48 -95 z m 56 -9 c 14 -15 16 -35 14 -112 c -3 -86 -5 -94 -23 -94 c -19 0 -20 8 -23 113 c -1 61 1 112 6 112 c 5 0 17 -8 26 -19 z m 94 -151 c -3 -47 -6 -55 -23 -55 c -18 0 -20 8 -23 80 l -3 79 l 26 -24 c 23 -21 26 -31 23 -80 z m -278 14 l 0 -75 l -42 3 l -43 3 l -3 73 l -3 72 l 46 0 l 45 0 l 0 -76 z m 125 1 l 0 -70 l -45 0 l -45 0 l -3 59 c -4 81 0 88 50 84 l 43 -3 l 0 -70 z m 232 -59 c -4 -9 -16 -16 -27 -16 c -17 0 -20 6 -20 42 l 0 43 l 26 -27 c 17 -16 24 -32 21 -42 z m 48 -25 c 3 -5 1 -12 -5 -16 c -5 -3 -10 1 -10 9 c 0 18 6 21 15 7 z m -445 -238 c 0 -187 -2 -219 -17 -235 c -9 -10 -20 -18 -25 -18 c -4 0 -8 106 -8 235 l 0 235 l 25 0 l 25 0 l 0 -217 z m 80 44 c 0 -172 0 -174 -25 -197 l -25 -23 l 0 196 l 0 197 l 25 0 l 25 0 l 0 -173 z m 90 44 c 0 -123 -1 -131 -24 -155 c -13 -15 -26 -26 -30 -26 c -3 0 -6 70 -6 155 l 0 155 l 30 0 l 30 0 l 0 -129 z m 108 107 c -3 -20 -9 -23 -43 -23 c -34 0 -40 3 -43 23 c -3 20 1 22 43 22 c 42 0 46 -2 43 -22 z m 122 9 c 0 -22 -23 -37 -57 -37 c -29 0 -33 3 -33 25 c 0 23 4 25 45 25 c 30 0 45 -4 45 -13 z m -120 -99 c 0 -24 -10 -42 -37 -70 c -20 -21 -41 -38 -45 -38 c -4 0 -8 32 -8 70 l 0 70 l 45 0 c 44 0 45 -1 45 -32 z m 60 28 c 0 -2 -7 -9 -15 -16 c -12 -10 -15 -10 -15 4 c 0 9 7 16 15 16 c 8 0 15 -2 15 -4 z" stroke-linecap="round"/>
</g>
		<g transform="matrix(0.1333 0 0 -0.1333 -32.2733 -2.2051)">
<path style="stroke: none; stroke-width: 1; stroke-dasharray: none; stroke-linecap: butt; stroke-dashoffset: 0; stroke-linejoin: miter; stroke-miterlimit: 4; is-custom-font: none; font-file-url: none; fill: rgb(0,0,0); fill-rule: nonzero; opacity: 1;" transform=" translate(-368, -616.4882)" d="M 321 776 c 9 -23 21 -63 25 -90 l 7 -49 l -57 6 c -31 3 -70 13 -88 21 c -17 9 -33 16 -35 16 c -1 0 -3 -29 -3 -64 l 0 -63 l 38 18 c 20 10 61 21 90 25 c 47 6 52 5 52 -13 c 0 -28 -30 -137 -41 -148 c -17 -17 -9 -20 54 -17 l 63 4 l -17 51 c -10 29 -18 69 -19 90 l 0 39 l 53 -7 c 28 -4 68 -14 87 -24 l 36 -16 l 0 66 l 0 66 l -31 -18 c -17 -10 -56 -21 -88 -25 l -57 -7 l 0 39 c 1 34 10 70 34 124 c 5 12 -5 15 -58 16 l -63 0 l 18 -40 z" stroke-linecap="round"/>
</g>
</g>
</g>
<g transform="matrix(1.729 0 0 1.729 649.4016 494.1463)" id="513790">
<path style="stroke: none; stroke-width: 1; stroke-dasharray: none; stroke-linecap: butt; stroke-dashoffset: 0; stroke-linejoin: miter; stroke-miterlimit: 4; is-custom-font: none; font-file-url: none; fill: rgb(51,140,116); fill-rule: evenodd; opacity: 1;" vector-effect="non-scaling-stroke" transform=" translate(-200.9998, -101.8109)" d="M 18.031 51.152 C 4.757 56.515 7.304 68.272 23.492 76.352 C 35.903 82.548 39.057 85.53 39.057 91.067 C 39.057 103.247 21.182 102.529 12.095 89.985 C 9.887 86.938 8.081 84.808 8.081 85.254 C 8.081 85.699 8.714 89.017 9.489 92.628 L 10.897 99.193 L 19.388 100.881 C 46.943 106.358 54.168 84.364 28.956 71.756 C 17.109 65.831 14.815 63.796 14.815 59.215 C 14.815 48.525 32.289 49.819 39.117 61.016 L 41.741 65.32 L 41.746 59.12 L 41.751 52.92 L 32.401 51.376 C 21.716 49.611 21.839 49.613 18.031 51.152 M 76.42 51.346 C 75.13 52.068 74.074 53.231 74.074 53.931 C 74.074 57.656 57.273 95.358 54.488 97.883 L 51.253 100.817 L 58.486 100.682 C 65.426 100.552 65.607 100.456 62.975 98.324 C 60.277 96.139 60.271 95.979 62.617 88.792 C 65.937 78.619 66.545 78.114 75.476 78.114 L 83.282 78.114 L 86.211 86.916 C 88.545 93.928 88.807 96.119 87.503 97.69 C 86.1 99.381 86.884 99.663 92.973 99.663 C 99.75 99.663 99.978 99.55 97.872 97.223 C 96.657 95.88 92.04 84.892 87.611 72.805 C 78.387 47.628 79.444 49.654 76.42 51.346 M 113.131 53.537 C 116.854 55.397 117.827 56.671 117.761 59.596 C 117.715 61.633 117.563 70.529 117.424 79.365 C 117.227 91.928 116.71 95.892 115.055 97.547 C 113.131 99.471 113.366 99.663 117.639 99.663 C 120.224 99.663 123.449 100.067 124.806 100.56 C 126.496 101.175 126.212 100.577 123.906 98.662 C 120.304 95.672 117.53 58.203 121.002 59.448 C 123.139 60.214 138.234 77.722 147.257 89.899 C 157.929 104.301 157.576 104.702 157.576 78.191 C 157.576 56.137 157.676 55.301 160.569 53.275 C 163.429 51.272 163.221 51.178 155.916 51.178 L 148.271 51.178 L 151.576 54.484 C 154.711 57.619 154.882 58.608 154.882 73.628 C 154.882 86.974 154.597 89.156 153.071 87.494 C 152.075 86.409 145.026 77.795 137.408 68.35 L 123.556 51.178 L 115.987 51.181 L 108.418 51.183 L 113.131 53.537 M 172.391 54.377 C 172.391 56.136 172.044 59.621 171.621 62.121 L 170.852 66.667 L 173.493 61.126 C 176.107 55.644 181.152 52.525 187.406 52.525 C 190.49 52.525 191.308 95.022 188.283 98.047 C 187.026 99.304 188.133 99.663 193.266 99.663 C 198.399 99.663 199.506 99.304 198.249 98.047 C 195.224 95.022 196.042 52.525 199.126 52.525 C 205.442 52.525 210.416 55.629 212.913 61.126 C 215.663 67.182 216.471 64.509 214.646 55.387 L 213.805 51.178 L 193.098 51.178 L 172.391 51.178 L 172.391 54.377 M 251.729 53.75 C 254.9 56.92 256.04 91.66 253.151 97.058 C 251.87 99.453 252.242 99.663 257.762 99.663 L 263.767 99.663 L 261.777 95.676 C 260.576 93.267 259.95 88.96 260.197 84.798 L 260.606 77.908 L 270.342 77.674 C 286.544 77.286 293.031 66.152 282.94 56.053 C 278.819 51.928 278.472 51.844 263.828 51.393 L 248.913 50.934 L 251.729 53.75 M 312.928 53.436 C 306.851 70.634 295.632 95.51 292.839 97.98 L 289.412 101.01 L 297.044 101.01 L 304.676 101.01 L 301.555 98.483 L 298.434 95.956 L 301.793 87.372 L 305.152 78.788 L 313.182 78.398 L 321.212 78.008 L 324.377 86.852 C 326.913 93.939 327.215 96.09 325.896 97.68 C 324.481 99.384 325.25 99.663 331.357 99.663 C 338.225 99.663 338.387 99.578 336.176 97.135 C 334.917 95.744 330.41 84.991 326.159 73.239 C 318.481 52.01 315.179 47.068 312.928 53.436 M 348.052 53.295 C 349.748 54.991 350.168 58.721 350.168 72.062 C 350.168 94.393 352.76 99.328 365.779 101.789 C 382.099 104.875 388.402 97.427 389.226 74.085 C 389.821 57.196 390.2 54.778 392.513 53.088 C 394.907 51.34 394.594 51.178 388.81 51.178 L 382.492 51.178 L 385.293 53.98 C 389.967 58.654 388.706 88.683 383.622 93.762 C 375.343 102.032 359.618 98.976 356.811 88.551 C 354.304 79.238 355.695 55.392 358.882 53.061 C 361.198 51.369 360.674 51.178 353.697 51.178 C 346.641 51.178 346.128 51.371 348.052 53.295 M 276.829 55.831 C 285.902 64.904 276.246 80.171 264.121 75.924 C 260.627 74.7 258.21 60.304 260.498 54.342 C 261.776 51.012 273.036 52.039 276.829 55.831 M 78.857 65.657 C 80.277 69.916 81.644 74.158 81.896 75.084 C 82.222 76.287 80.168 76.768 74.702 76.768 C 67.953 76.768 67.164 76.49 68 74.411 C 68.522 73.114 70.186 68.872 71.698 64.983 C 75.152 56.103 75.689 56.154 78.857 65.657 M 317.099 65.657 C 318.441 69.916 319.828 74.158 320.183 75.084 C 320.651 76.307 318.762 76.768 313.275 76.768 C 309.122 76.768 305.724 76.471 305.724 76.108 C 305.724 74.239 312.882 57.912 313.702 57.912 C 314.229 57.912 315.757 61.397 317.099 65.657 M 164.31 128.62 C 164.31 134.311 162.829 136.385 160.943 133.333 C 159.482 130.97 153.734 131.886 150.894 134.934 C 142.821 143.6 151.925 158.017 161.316 151.439 C 164.026 149.541 164.31 149.541 164.31 151.439 C 164.31 152.592 164.916 153.535 165.657 153.535 C 166.476 153.535 167.003 147.475 167.003 138.047 C 167.003 128.62 166.476 122.559 165.657 122.559 C 164.916 122.559 164.31 125.286 164.31 128.62 M 10.774 138.721 C 10.774 147.699 11.305 153.535 12.121 153.535 C 12.937 153.535 13.468 147.699 13.468 138.721 C 13.468 129.742 12.937 123.906 12.121 123.906 C 11.305 123.906 10.774 129.742 10.774 138.721 M 77.399 125.32 C 76.12 127.391 77.872 128.727 79.601 126.998 C 80.568 126.031 80.592 125.278 79.672 124.709 C 78.918 124.243 77.895 124.518 77.399 125.32 M 205.612 124.804 C 204.134 126.281 204.56 153.535 206.061 153.535 C 206.801 153.535 207.407 150.789 207.407 147.432 C 207.407 137.074 214.57 137.415 217.973 147.935 C 218.969 151.015 220.381 153.535 221.11 153.535 C 222.792 153.535 221.247 145.787 218.789 141.9 C 217.194 139.376 217.294 138.723 219.595 136.64 C 225.278 131.497 220.556 123.906 211.672 123.906 C 208.833 123.906 206.105 124.31 205.612 124.804 M 127.603 127.391 C 127.051 127.943 126.599 129.506 126.599 130.864 C 126.599 132.222 125.69 133.333 124.579 133.333 C 123.468 133.333 122.559 133.939 122.559 134.68 C 122.559 135.421 123.468 136.027 124.579 136.027 C 126.101 136.027 126.599 137.661 126.599 142.651 C 126.599 151.362 127.569 153.535 131.457 153.535 C 135.366 153.535 135.727 151.43 131.987 150.452 C 127.663 149.321 127.973 134.721 132.323 134.585 C 135.162 134.497 135.186 134.425 132.691 133.451 C 131.227 132.878 129.709 131.055 129.318 129.399 C 128.927 127.743 128.155 126.839 127.603 127.391 M 218.13 129.195 C 220.637 133.881 216.603 138.721 210.19 138.721 C 207.79 138.721 207.407 137.887 207.407 132.66 C 207.407 125.741 214.973 123.297 218.13 129.195 M 63.3 130.527 C 63.3 131.947 62.542 133.462 61.616 133.895 C 60.269 134.523 60.269 134.837 61.616 135.466 C 62.647 135.947 63.3 138.973 63.3 143.277 C 63.3 147.141 64.027 151.03 64.916 151.919 C 66.873 153.876 71.38 154.064 71.38 152.189 C 71.38 151.448 70.536 150.842 69.504 150.842 C 64.85 150.842 64.424 136.571 69.024 134.722 C 71.53 133.715 71.625 133.489 69.571 133.419 C 68.205 133.372 66.771 132.121 66.384 130.64 C 65.486 127.207 63.3 127.127 63.3 130.527 M 88.889 130.64 C 88.889 132.136 87.991 133.333 86.869 133.333 C 85.758 133.333 84.848 133.939 84.848 134.68 C 84.848 135.421 85.455 136.027 86.195 136.027 C 86.936 136.027 87.542 138.941 87.542 142.504 C 87.542 150.45 89.828 154.027 94.352 153.161 L 97.643 152.531 L 94.613 151.529 C 90.02 150.011 90.02 135.168 94.613 134.284 L 97.643 133.7 L 94.613 133.517 C 92.541 133.391 91.582 132.481 91.582 130.64 C 91.582 129.158 90.976 127.946 90.236 127.946 C 89.495 127.946 88.889 129.158 88.889 130.64 M 27.539 133.896 C 25.09 135.69 25.222 135.803 29.514 135.586 C 34.709 135.323 37.107 140.266 36.074 149.111 C 35.705 152.272 36.102 153.535 37.464 153.535 C 39.676 153.535 39.241 136.954 36.973 134.835 C 34.409 132.438 30.112 132.011 27.539 133.896 M 48.211 132.907 C 42.288 134.456 45.365 143.292 52.677 145.73 C 55.985 146.832 52.73 150.842 48.527 150.842 C 46.282 150.842 44.444 151.448 44.444 152.189 C 44.444 154.089 52.999 153.869 54.949 151.919 C 58.09 148.778 56.769 144.494 51.745 141.53 C 46.006 138.143 46.32 135.662 52.632 134.521 C 55.166 134.063 56.531 133.608 55.666 133.511 C 54.8 133.413 53.285 133.102 52.299 132.82 C 51.312 132.538 49.473 132.577 48.211 132.907 M 175.182 135.535 C 168.302 144.282 176.529 156.33 186.532 152.155 C 188.679 151.259 188.22 151.012 184.271 150.936 C 173.308 150.727 171.574 142.761 182.492 142.761 C 189.364 142.761 189.899 142.533 189.899 139.603 C 189.899 132.13 180.01 129.397 175.182 135.535 M 230.303 134.68 C 222.496 142.487 230.074 155.382 240.612 152.222 C 244.241 151.134 244.155 151.067 238.99 150.958 C 227.463 150.713 226.363 142.761 237.856 142.761 L 245.41 142.761 L 244.517 139.057 C 242.808 131.973 235.317 129.666 230.303 134.68 M 255.172 133.268 C 244.688 137.517 247.442 153.535 258.656 153.535 C 260.752 153.535 262.842 152.929 263.3 152.189 C 263.791 151.393 262.281 150.842 259.608 150.842 C 253.935 150.842 251.852 148.806 251.852 143.261 C 251.852 137.607 255.2 134.273 260.15 134.999 C 264.246 135.6 265.361 134.154 261.843 132.804 C 259.256 131.811 258.664 131.852 255.172 133.268 M 270.805 135.535 C 263.924 144.282 272.152 156.33 282.155 152.155 C 284.302 151.259 283.843 151.012 279.894 150.936 C 268.931 150.727 267.197 142.761 278.114 142.761 C 284.987 142.761 285.522 142.533 285.522 139.603 C 285.522 132.13 275.633 129.397 270.805 135.535 M 296.663 134.036 C 294.479 135.566 293.688 135.636 293.225 134.342 C 291.832 130.44 291.24 134.667 291.905 143.771 C 292.759 155.473 294.949 156.802 294.949 145.619 C 294.949 138.911 295.412 137.391 297.98 135.665 C 299.646 134.545 300.671 133.272 300.255 132.838 C 299.84 132.404 298.224 132.943 296.663 134.036 M 309.622 133.487 C 302.856 135.97 301.087 144.981 306.336 150.23 C 309.724 153.617 316.92 154.774 318.519 152.189 C 319.013 151.388 317.421 150.842 314.589 150.842 C 311.051 150.842 309.283 150.012 307.714 147.617 C 303.58 141.309 308.622 133.633 315.976 135.039 C 319.569 135.726 320.371 134.074 317.062 132.804 C 314.485 131.815 314.075 131.853 309.622 133.487 M 325.304 133.25 C 324.874 133.945 326.803 134.703 329.59 134.934 C 336.286 135.488 337.362 139.329 331.169 140.568 C 325.492 141.703 323.232 143.724 323.232 147.669 C 323.232 151.914 328.955 154.815 332.706 152.472 C 334.104 151.599 336.029 151.187 336.984 151.555 C 339.119 152.377 338.602 136.341 336.407 133.67 C 334.796 131.71 326.451 131.394 325.304 133.25 M 21.549 143.434 C 21.549 155.645 23.796 156.918 24.52 145.118 C 25.073 136.094 24.659 133.333 22.752 133.333 C 22.09 133.333 21.549 137.879 21.549 143.434 M 76.768 143.434 C 76.768 149.27 77.336 153.535 78.114 153.535 C 78.893 153.535 79.461 149.27 79.461 143.434 C 79.461 137.598 78.893 133.333 78.114 133.333 C 77.336 133.333 76.768 137.598 76.768 143.434 M 101.01 140.441 C 101.01 151.792 105.871 156.314 112.832 151.439 C 115.541 149.541 115.825 149.541 115.825 151.439 C 115.825 152.592 116.431 153.535 117.172 153.535 C 117.95 153.535 118.519 149.27 118.519 143.434 C 118.519 129.953 114.836 128.515 114.206 141.751 C 113.531 155.923 103.704 154.107 103.704 139.81 C 103.704 136.248 103.098 133.333 102.357 133.333 C 101.616 133.333 101.01 136.532 101.01 140.441 M 161.347 136.296 C 163.438 138.387 163.438 147.135 161.347 149.226 C 155.59 154.983 148.052 145.104 152.236 137.285 C 153.794 134.373 158.873 133.822 161.347 136.296 M 185.811 137.285 C 187.913 141.213 187.686 141.414 181.145 141.414 C 177.811 141.414 175.084 141.071 175.084 140.652 C 175.084 137.908 178.36 134.68 181.145 134.68 C 183.002 134.68 185.02 135.807 185.811 137.285 M 240.834 138.384 C 241.22 141.1 240.697 141.414 235.784 141.414 C 232.185 141.414 230.303 140.813 230.303 139.663 C 230.303 134.164 240.067 132.978 240.834 138.384 M 281.434 137.285 C 283.536 141.213 283.309 141.414 276.768 141.414 C 273.434 141.414 270.707 141.071 270.707 140.652 C 270.707 137.908 273.983 134.68 276.768 134.68 C 278.624 134.68 280.643 135.807 281.434 137.285 M 335.354 144.671 C 335.354 148.644 333.609 150.842 330.453 150.842 C 326.61 150.842 324.926 147.609 327.287 144.764 C 329.42 142.194 335.354 142.126 335.354 144.671" stroke-linecap="round"/>
</g>
</svg>