<svg id="svg" xmlns="http://www.w3.org/2000/svg" xmlns:xlink="http://www.w3.org/1999/xlink" width="400" height="396.6942148760331" viewBox="0, 0, 400,396.6942148760331"><g id="svgg"><path id="path0" d="M100.819 99.181 L 8.294 191.750 101.668 285.124 L 195.041 378.498 288.415 285.124 L 381.789 191.750 289.264 99.181 C 238.375 48.268,195.975 6.612,195.041 6.612 C 194.108 6.612,151.708 48.268,100.819 99.181 M195.041 192.554 L 195.041 365.274 108.280 278.513 L 21.519 191.752 107.430 105.793 C 154.681 58.516,193.723 19.835,194.191 19.835 C 194.659 19.835,195.041 97.558,195.041 192.554 M222.175 45.299 L 234.711 57.540 234.711 93.233 L 234.711 128.926 219.835 128.926 L 204.959 128.926 204.959 80.992 C 204.959 27.673,204.692 28.227,222.175 45.299 M261.844 84.968 C 272.912 95.776,274.380 99.067,274.380 113.068 L 274.380 128.926 261.400 128.926 L 248.420 128.926 247.350 100.819 C 246.115 68.357,245.510 69.019,261.844 84.968 M294.781 117.868 C 305.569 127.631,303.672 185.124,292.562 185.124 L 284.298 185.124 284.298 148.760 C 284.298 110.771,284.918 108.942,294.781 117.868 M103.991 135.264 C 107.490 142.031,115.702 176.558,115.702 184.504 C 115.702 189.615,70.599 178.315,56.198 169.596 C 55.289 169.045,54.545 179.008,54.545 191.736 C 54.545 204.463,55.289 214.426,56.198 213.875 C 67.115 207.265,84.408 201.924,97.676 201.063 L 114.050 200.000 112.929 214.876 C 112.312 223.058,108.965 236.263,105.491 244.222 C 102.016 252.180,99.174 258.874,99.174 259.098 C 99.174 259.321,108.843 259.504,120.661 259.504 C 144.351 259.504,144.184 259.641,137.302 245.847 C 134.637 240.504,131.442 227.506,130.203 216.964 L 127.951 197.796 144.141 200.091 C 153.045 201.353,166.434 205.016,173.894 208.230 L 187.457 214.074 187.457 191.990 L 187.457 169.906 175.547 175.710 C 168.996 178.903,155.593 182.550,145.762 183.814 L 127.887 186.113 129.963 168.586 C 131.105 158.945,134.763 145.553,138.092 138.825 L 144.144 126.592 121.825 126.592 L 99.507 126.592 103.991 135.264 M234.711 161.983 L 234.711 185.124 219.835 185.124 L 204.959 185.124 204.959 164.187 C 204.959 139.616,205.480 138.843,222.039 138.843 L 234.711 138.843 234.711 161.983 M274.380 161.983 L 274.380 185.124 261.157 185.124 L 247.934 185.124 247.934 161.983 L 247.934 138.843 261.157 138.843 L 274.380 138.843 274.380 161.983 M321.227 144.314 C 331.568 153.672,329.857 185.124,319.008 185.124 C 310.980 185.124,310.744 184.463,310.744 161.983 C 310.744 137.364,311.723 135.713,321.227 144.314 M350.413 179.025 C 350.413 182.920,348.024 185.124,343.802 185.124 C 338.396 185.124,337.190 182.920,337.190 173.041 C 337.190 161.168,337.305 161.062,343.802 166.942 C 347.438 170.233,350.413 175.670,350.413 179.025 M221.488 268.845 L 221.488 339.343 213.223 347.107 L 204.959 354.871 204.959 276.609 L 204.959 198.347 213.223 198.347 L 221.488 198.347 221.488 268.845 M247.934 255.622 C 247.934 312.441,247.868 312.959,239.669 320.661 L 231.405 328.425 231.405 263.386 L 231.405 198.347 239.669 198.347 L 247.934 198.347 247.934 255.622 M274.380 241.888 C 274.380 277.765,273.417 286.494,268.909 291.475 C 259.913 301.416,259.504 299.524,259.504 247.934 C 259.504 198.714,259.559 198.347,266.942 198.347 C 274.279 198.347,274.380 198.938,274.380 241.888 M313.453 205.525 C 311.883 216.191,286.464 216.191,284.894 205.525 C 283.939 199.038,285.314 198.347,299.174 198.347 C 313.033 198.347,314.408 199.038,313.453 205.525 M353.099 204.082 C 352.043 209.569,329.647 216.148,325.646 212.148 C 318.435 204.937,324.852 198.347,339.085 198.347 C 351.654 198.347,354.018 199.314,353.099 204.082 M314.050 235.398 C 314.050 245.405,294.539 271.074,286.932 271.074 C 285.483 271.074,284.298 260.661,284.298 247.934 L 284.298 224.793 299.174 224.793 C 313.713 224.793,314.050 225.033,314.050 235.398 M333.884 226.042 C 333.884 226.728,331.653 229.142,328.926 231.405 C 324.864 234.775,323.967 234.550,323.967 230.157 C 323.967 227.207,326.198 224.793,328.926 224.793 C 331.653 224.793,333.884 225.355,333.884 226.042 " stroke="none" fill="#000000" fill-rule="evenodd"></path></g></svg>